<?xml version="1.0" encoding="utf-8"?>
<!-- Generator: Adobe Illustrator 23.0.3, SVG Export Plug-In . SVG Version: 6.00 Build 0)  -->
<svg version="1.1" id="Capa_1" xmlns="http://www.w3.org/2000/svg" xmlns:xlink="http://www.w3.org/1999/xlink" x="0px" y="0px"
	 viewBox="0 0 77 77" style="enable-background:new 0 0 77 77;" xml:space="preserve">
<style type="text/css">
	.st0{fill:#009EC9;}
</style>
<g>
	<path class="st0" d="M70,5L5.3,39c-2.7,1.4-2.6,3.4,0.2,4.5l8.3,3.3c2.8,1.1,7,0.5,9.4-1.3l35.9-28.3c2.4-1.9,2.6-1.6,0.6,0.6
		L31.3,48.1c-2.1,2.2-1.4,4.9,1.4,6l1,0.4c2.8,1.1,7.4,2.9,10.1,4l9.2,3.7c2.8,1.1,5.1,2.1,5.1,2.1c0,0,0,0.1,0,0.1
		c0,0,0.7-2.4,1.5-5.3l14-51.4C74.2,4.9,72.7,3.6,70,5z"/>
	<path class="st0" d="M31.6,57.5l-6.3-2.6c-2.8-1.1-4.1,0.2-3,3c0,0,5.9,14.2,5.7,14.7c-0.2,0.5,5.6-8.4,5.6-8.4
		C35.3,61.6,34.4,58.7,31.6,57.5z"/>
</g>
</svg>
