<?xml version="1.0" encoding="utf-8"?>
<!-- Generator: Adobe Illustrator 23.0.3, SVG Export Plug-In . SVG Version: 6.00 Build 0)  -->
<svg version="1.1" id="Layer_1" xmlns="http://www.w3.org/2000/svg" xmlns:xlink="http://www.w3.org/1999/xlink" x="0px" y="0px"
	 viewBox="0 0 1920 1080" style="enable-background:new 0 0 1920 1080;" width="1920" height="1080" xml:space="preserve">
<style type="text/css">
	.st0{opacity:0.1;}
	.st1{clip-path:url(#SVGID_2_);}
	.st2{clip-path:url(#SVGID_2_);fill:#FFFFFF;}
</style>
<g class="st0">
	<defs>
		<rect id="SVGID_1_" x="0" class="st0" width="1920" height="1080"/>
	</defs>
	<clipPath id="SVGID_2_">
		<use xlink:href="#SVGID_1_"  style="overflow:visible;"/>
	</clipPath>
	<g class="st1">
		<defs>
			<polygon id="SVGID_3_" points="949.05,-384.72 -100.51,746.21 467.69,1358.15 949.17,839.62 1349.06,1270.28 1813.79,769.79
				948.86,-161.72 106.28,745.71 467.82,1135.08 949.02,616.85 1348.92,1047.53 1606.85,769.75 948.89,61.14 313.4,745.55
				467.87,911.91 948.97,393.79 948.97,393.79 1343.45,818.63 1394.34,763.83 948.97,284.18 948.97,284.18 467.87,802.3
				415.17,745.55 948.89,170.75 1505.08,769.75 1348.92,937.92 949.02,507.25 467.82,1025.48 208.05,745.71 948.86,-52.11
				1712.02,769.79 1349.06,1160.68 949.17,730.01 467.69,1248.54 1.25,746.2 949.06,-275.1 1918.74,769.21 1401,1326.79
				1451.89,1381.6 2020.51,769.21 			"/>
		</defs>
		<clipPath id="SVGID_4_">
			<use xlink:href="#SVGID_3_"  style="overflow:visible;"/>
		</clipPath>
		<g style="clip-path:url(#SVGID_4_);">

				<image style="overflow:visible;" width="1500" height="1021" xlink:href="background-img.jpg"  transform="matrix(1.28 0 0 1.3785 0 0)">
			</image>
		</g>
	</g>
	<polygon class="st2" points="949.05,-384.72 -100.51,746.21 467.69,1358.15 949.17,839.62 1349.06,1270.28 1813.79,769.79
		948.86,-161.72 106.28,745.71 467.82,1135.08 949.02,616.85 1348.92,1047.53 1606.85,769.75 948.89,61.14 313.4,745.55
		467.87,911.91 948.97,393.79 948.97,393.79 1343.45,818.63 1394.34,763.83 948.97,284.18 948.97,284.18 467.87,802.3
		415.17,745.55 948.89,170.75 1505.08,769.75 1348.92,937.92 949.02,507.25 467.82,1025.48 208.05,745.71 948.86,-52.11
		1712.02,769.79 1349.06,1160.68 949.17,730.01 467.69,1248.54 1.25,746.2 949.06,-275.1 1918.74,769.21 1401,1326.79
		1451.89,1381.6 2020.51,769.21 	"/>
</g>
</svg>
