<?xml version="1.0" encoding="utf-8"?>
<!-- Generator: Adobe Illustrator 23.0.3, SVG Export Plug-In . SVG Version: 6.00 Build 0)  -->
<svg version="1.1" id="Layer_1" xmlns="http://www.w3.org/2000/svg" xmlns:xlink="http://www.w3.org/1999/xlink" x="0px" y="0px"
	 viewBox="0 0 516 397" style="enable-background:new 0 0 516 397;" xml:space="preserve">
<style type="text/css">
	.st0{fill:#009EC9;}
	.st1{fill:#0073A0;}
	.st2{fill:none;stroke:#FFFFFF;stroke-width:2;stroke-miterlimit:10;}
</style>
<g>
	<polygon class="st0" points="54.43,253.25 140.64,339.46 255.38,224.72 255.38,224.72 255.38,200.45 255.38,200.45 140.64,315.19
		78.7,253.25 255.34,76.6 255.34,76.6 255.34,52.34 255.34,52.34 	"/>
	<polygon class="st0" points="255.42,249.77 140.61,364.58 29.39,253.36 255.39,27.23 255.39,27.23 255.39,2.96 255.39,2.96
		5.12,253.36 140.61,388.85 255.42,274.04 255.42,274.04 255.42,249.77 	"/>
	<polygon class="st0" points="255.37,151.06 140.65,265.78 128.09,253.21 255.35,125.95 255.35,125.95 255.35,101.68 255.35,101.68
		103.82,253.21 140.65,290.05 255.37,175.33 255.37,175.33 255.37,151.06 	"/>
	<polygon class="st1" points="486.61,258.45 363.16,381.9 375.29,394.04 510.88,258.45 255.39,2.96 255.39,27.23 	"/>
	<polygon class="st1" points="461.59,258.58 255.34,52.34 255.34,76.6 437.32,258.58 350.77,345.12 255.42,249.77 255.42,274.04
		350.77,369.39 	"/>
	<polygon class="st1" points="412.24,258.57 255.35,101.68 255.35,125.95 387.97,258.57 350.74,295.81 255.38,200.45 255.38,224.72
		350.74,320.07 	"/>
	<polygon class="st1" points="361.57,257.26 255.37,151.06 255.37,175.33 349.43,269.39 	"/>
	<polyline class="st2" points="355.5,263.33 255.37,163.19 140.65,277.91 115.95,253.21 255.35,113.81 400.11,258.57 350.74,307.94
		255.38,212.58 140.64,327.32 66.57,253.25 255.34,64.47 449.45,258.58 350.77,357.26 255.42,261.91 140.61,376.71 17.26,253.36
		255.39,15.1 498.74,258.45 369.22,387.97 	"/>
</g>
</svg>
